HIERARCHY
ROOT hip
{
	OFFSET 0.000000 0.000000 0.000000 
	CHANNELS 6 Xposition Yposition Zposition Xrotation Zrotation Yrotation
	JOINT abdomen
	{
		OFFSET 0.000000 3.402643 0.000000 
		CHANNELS 3 Xrotation Zrotation Yrotation
		JOINT chest
		{
			OFFSET 0.000000 8.438565 -0.680529 
			CHANNELS 3 Xrotation Zrotation Yrotation
			JOINT neck
			{
				OFFSET 0.000000 10.207942 -0.272212 
				CHANNELS 3 Xrotation Zrotation Yrotation
				JOINT head
				{
					OFFSET 0.000000 3.130431 0.000000 
					CHANNELS 3 Xrotation Zrotation Yrotation
					End Site
					{
						OFFSET 0.000000 3.130435 0.000000 
					}
				}
			}
			JOINT lCollar
			{
				OFFSET 3.470700 6.669187 -0.816635 
				CHANNELS 3 Yrotation Zrotation Xrotation
				JOINT lShldr
				{
					OFFSET 3.198488 0.000000 0.000000 
					CHANNELS 3 Zrotation Yrotation Xrotation
					JOINT lForeArm
					{
						OFFSET 10.139888 0.000000 0.000000 
						CHANNELS 3 Yrotation Zrotation Xrotation
						JOINT lHand
						{
							OFFSET 8.370511 0.000000 0.000000 
							CHANNELS 3 Zrotation Yrotation Xrotation
							End Site
							{
								OFFSET 4.083176 0.000000 0.000000 
							}
						}
					}
				}
			}
			JOINT rCollar
			{
				OFFSET -3.470700 6.669187 -0.816635 
				CHANNELS 3 Yrotation Zrotation Xrotation
				JOINT rShldr
				{
					OFFSET -3.198488 0.000000 0.000000 
					CHANNELS 3 Zrotation Yrotation Xrotation
					JOINT rForeArm
					{
						OFFSET -10.139888 0.000000 0.000000 
						CHANNELS 3 Yrotation Zrotation Xrotation
						JOINT rHand
						{
							OFFSET -8.370511 0.000000 0.000000 
							CHANNELS 3 Zrotation Yrotation Xrotation
							End Site
							{
								OFFSET -4.083176 0.000000 0.000000 
							}
						}
					}
				}
			}
		}
	}
	JOINT lThigh
	{
		OFFSET 5.308129 -1.633274 1.361059 
		CHANNELS 3 Xrotation Zrotation Yrotation
		JOINT lShin
		{
			OFFSET -2.041588 -20.007561 0.000000 
			CHANNELS 3 Xrotation Zrotation Yrotation
			JOINT lFoot
			{
				OFFSET 0.000000 -19.190928 -1.224953 
				CHANNELS 3 Xrotation Yrotation Zrotation
				End Site
				{
					OFFSET 0.000000 -2.449906 4.627600 
				}
			}
		}
	}
	JOINT rThigh
	{
		OFFSET -5.308129 -1.633274 1.361059 
		CHANNELS 3 Xrotation Zrotation Yrotation
		JOINT rShin
		{
			OFFSET 2.041588 -20.007561 0.000000 
			CHANNELS 3 Xrotation Zrotation Yrotation
			JOINT rFoot
			{
				OFFSET 0.000000 -19.190928 -1.224953 
				CHANNELS 3 Xrotation Yrotation Zrotation
				End Site
				{
					OFFSET 0.000000 -2.449906 4.627600 
				}
			}
		}
	}
}
MOTION
Frames: 13
Frame Time: 0.016667
-2.433782 88.796799 4.067375 -117.248871 1.929049 -19.073633 63.560154 -0.931119 9.915016 6.750749 2.030325 4.649774 14.841934 -4.761389 -1.329361 33.769634 -6.389343 6.897449 -15.839376 -4.859322 -0.248543 -67.502510 -40.338413 27.901234 -67.551826 5.000000 -12.186789 -18.854313 -4.060946 -45.000000 21.203205 -2.936533 0.145283 76.971092 48.463840 45.000000 80.597984 -5.000000 -6.846269 1.021621 -25.344566 -13.085475 -46.529404 24.805872 35.705994 60.606480 -5.962957 -11.834547 27.898632 -8.522153 -19.147629 -74.157013 -0.810386 -13.702990 68.625244 3.525946 10.558340 -13.045443 -0.262208 17.776329 
-2.990268 89.306412 4.141103 -118.908569 1.840864 -16.893671 63.638416 -0.441811 9.105476 6.848793 1.844973 4.493238 15.495411 -4.316486 -1.257276 33.491394 -5.676001 6.535626 -15.998028 -5.376205 -0.276070 -67.044418 -40.049473 27.765181 -66.777832 5.000000 -12.264106 -19.527971 -3.841710 -45.000000 20.986872 -2.253817 0.109897 76.429497 47.317802 45.000000 80.509567 -5.000000 -6.848634 0.920501 -25.082603 -14.290353 -45.901421 24.164377 34.669228 62.597515 -5.705270 -12.408770 27.759405 -9.118545 -19.516430 -72.360367 -0.507626 -16.816883 66.401901 3.847945 10.133421 -12.620152 -0.041758 18.567194 
-3.534119 89.782196 4.249814 -120.545135 1.803292 -14.811939 63.660328 -0.190395 8.319410 6.947623 1.649822 4.366017 15.843259 -3.833894 -1.131833 33.335526 -5.009964 6.175654 -16.087486 -5.688284 -0.292179 -66.827103 -39.899010 27.888058 -65.926239 5.000000 -12.427356 -20.254759 -3.532187 -45.000000 20.751493 -1.619860 0.076747 75.902855 46.267841 45.000000 80.464058 -5.000000 -6.819977 0.907294 -24.827402 -15.667845 -45.455482 23.684608 33.720264 64.628937 -5.406090 -12.870612 27.622177 -9.765176 -19.949118 -70.669830 -0.214117 -19.824814 65.413277 3.906521 9.755145 -11.982720 0.311837 19.252945 
-4.069499 90.235359 4.381860 -122.149269 1.809394 -12.799433 63.661858 -0.107464 7.571139 7.067206 1.464402 4.258351 15.996967 -3.329001 -0.990073 33.256153 -4.371984 5.817345 -16.117653 -5.854077 -0.300734 -66.763596 -39.844685 28.145594 -65.023361 5.000000 -12.633292 -21.029573 -3.148183 -45.000000 20.506741 -1.024912 0.045987 75.402634 45.277161 45.000000 80.445259 -5.000000 -6.769249 0.956046 -24.580912 -17.186872 -45.096073 23.317343 32.845295 66.669029 -5.026548 -13.280766 27.478487 -10.466148 -20.465521 -69.022041 0.048928 -22.776571 65.296318 3.847998 9.457777 -11.226759 0.768078 19.842943 
-4.596879 90.676193 4.524906 -123.725800 1.870611 -10.796670 63.646488 -0.040040 6.814420 7.177882 1.288726 4.141172 16.066753 -2.854428 -0.853644 33.213234 -3.771852 5.470251 -16.128155 -5.990611 -0.307777 -66.735535 -39.842896 28.457668 -64.118011 5.000000 -12.841747 -21.777761 -2.732256 -45.000000 20.281847 -0.468977 0.017241 74.943649 44.316364 44.902508 80.421341 -5.000000 -6.721187 1.007888 -24.344202 -18.707214 -44.833759 22.987988 31.973289 68.717331 -4.607325 -13.604836 27.326061 -11.174545 -20.994276 -67.450768 0.351486 -25.660250 65.516579 3.656214 9.082196 -10.203921 1.167861 20.439304 
-5.092033 91.067665 4.711816 -125.211891 1.987771 -8.852790 63.628220 -0.116452 6.110104 7.241546 1.152078 3.994481 15.799935 -2.480694 -0.731665 33.305984 -3.287359 5.174293 -16.049871 -5.961355 -0.306268 -66.885986 -39.986309 28.990276 -63.190289 5.000000 -13.114028 -22.428219 -2.196018 -45.000000 20.154863 -0.059347 -0.003939 74.548553 43.447235 43.690472 80.392204 -5.000000 -6.693019 1.185110 -24.130749 -20.292593 -44.881207 22.732431 31.216501 70.806305 -4.059007 -13.733485 26.865383 -11.851610 -21.526041 -66.004372 0.381525 -28.279659 67.088936 3.134704 8.461051 -8.234677 1.690806 20.989031 
-5.587213 91.459137 4.898775 -126.686882 2.152195 -6.918697 63.605843 -0.189716 5.382758 7.315176 1.015423 3.838230 15.534994 -2.106914 -0.610177 33.393356 -2.812096 4.868910 -15.961874 -5.941849 -0.305261 -67.023361 -40.142170 29.508173 -62.267029 5.000000 -13.371646 -23.067678 -1.644373 -45.000000 20.028027 0.350283 -0.025119 74.195183 42.569443 42.508511 80.348373 -5.000000 -6.678833 1.355270 -23.926445 -21.887074 -44.909317 22.495602 30.428513 72.899956 -3.542631 -13.842070 26.404999 -12.571717 -22.088955 -64.573616 0.472022 -30.862093 68.696068 2.636824 7.850314 -6.257164 2.262008 21.532579 
-6.033932 91.812492 5.121093 -128.060516 2.363834 -5.052979 63.531593 -0.868441 6.223111 7.321428 1.103389 2.060762 15.284537 -1.857705 -0.529409 33.057560 -2.394470 4.642365 -15.853827 -5.824819 -0.299224 -67.227211 -40.378601 30.106232 -61.324074 5.000000 -13.678375 -23.634958 -0.996802 -45.000000 19.901314 0.720903 -0.044281 73.934547 41.898617 41.549381 80.153015 -5.000000 -6.792624 1.470689 -23.728718 -23.404856 -45.194218 22.283590 29.648464 74.908127 -3.007009 -13.713408 25.801935 -13.214685 -22.643812 -63.162277 0.283739 -32.892090 70.779724 2.089847 6.939331 -2.711391 2.611925 21.935902 
-6.468547 92.156334 5.352282 -129.404602 2.613071 -3.216224 63.442841 -1.689144 7.463705 7.297207 1.240176 -0.126661 15.035338 -1.629251 -0.455058 32.628311 -2.005749 4.416480 -15.745639 -5.678531 -0.291676 -67.434044 -40.649632 30.713923 -60.380177 5.000000 -13.987014 -24.183044 -0.332413 -45.000000 19.784479 1.081768 -0.062937 73.729248 41.260727 40.680084 79.899010 -5.000000 -6.952016 1.563705 -23.543009 -24.892187 -45.527229 22.080061 28.896017 76.904381 -2.488829 -13.525977 25.032061 -13.845922 -23.208826 -61.750587 0.063029 -34.756725 72.991013 1.552817 5.914792 1.189387 3.013970 22.385727 
-6.871728 92.475502 5.602659 -130.671387 2.879866 -1.505441 63.361862 -2.234982 7.877903 7.264209 1.289035 -1.425656 14.768358 -1.453440 -0.402656 32.181087 -1.675135 4.220370 -15.647285 -5.541996 -0.284629 -67.629379 -40.952267 31.359966 -59.434284 5.000000 -14.317223 -24.712715 0.344423 -45.000000 19.706770 1.403617 -0.079572 73.538834 40.721516 39.925159 79.546059 -5.000000 -7.195658 1.629356 -23.393349 -26.273777 -45.956501 21.903580 28.156654 78.833046 -1.961031 -13.195805 24.249516 -14.549741 -23.815231 -60.396240 -0.182917 -36.330963 75.043182 1.113354 4.934008 5.352974 3.091834 22.586988 
-7.227780 92.757629 5.881822 -131.806107 3.134765 0.010285 63.317570 -2.377723 7.095569 7.205456 1.201144 -1.376834 14.483385 -1.359245 -0.367525 31.714483 -1.441715 4.044144 -15.548903 -5.395710 -0.277077 -67.801651 -41.325745 32.030937 -58.460484 5.000000 -14.701967 -25.205923 1.026205 -45.000000 19.677914 1.686448 -0.094474 73.377655 40.329250 39.341026 79.031746 -5.000000 -7.579070 1.651316 -23.319332 -27.483368 -46.491440 21.793316 27.509611 80.647026 -1.473420 -12.730132 23.462908 -15.249374 -24.424631 -59.109398 -0.516492 -37.386559 76.820732 0.820506 4.025696 9.930698 2.909268 22.616455 
-7.583806 93.039719 6.160996 -132.936951 3.416775 1.516801 63.273746 -2.511457 6.302673 7.146642 1.113253 -1.318247 14.198759 -1.266509 -0.341828 31.246237 -1.208166 3.877738 -15.460305 -5.249421 -0.269523 -67.973221 -41.705509 32.708012 -57.501225 5.000000 -15.072769 -25.697618 1.703964 -45.000000 19.648811 1.972561 -0.099943 73.214432 39.943638 38.763893 78.501999 -5.000000 -7.971505 1.666121 -23.246794 -28.689304 -47.008369 21.665638 26.864922 82.430313 -0.986084 -12.240266 22.650402 -15.930287 -25.074072 -57.816635 -0.806768 -38.443958 78.619240 0.566387 3.090052 14.496922 2.770612 22.726622 
-7.852201 93.251305 6.490868 -133.965591 3.570839 2.495128 63.291832 -2.713543 5.756621 7.038211 0.996069 -1.288953 13.885723 -1.244279 -0.325442 30.821348 -1.179123 3.740848 -15.401161 -5.132392 -0.263478 -68.028297 -42.152054 33.367908 -56.523819 5.000000 -15.558473 -26.261776 2.361746 -45.000000 19.688221 2.157861 -0.109547 73.033607 39.866806 38.465366 77.657715 -5.000000 -8.613139 1.585883 -23.393061 -29.753496 -47.518433 21.766176 26.283077 83.974983 -0.644313 -11.665226 22.179022 -16.668684 -25.707127 -56.762833 -1.041264 -39.055569 79.691338 0.429656 2.565201 17.400028 1.982218 22.621124 
